<?xml version="1.0" standalone="no"?>
<!DOCTYPE svg PUBLIC "-//W3C//DTD SVG 20010904//EN"
 "http://www.w3.org/TR/2001/REC-SVG-20010904/DTD/svg10.dtd">
<svg version="1.0" xmlns="http://www.w3.org/2000/svg"
 width="406.000000pt" height="406.000000pt" viewBox="0 0 406.000000 406.000000"
 preserveAspectRatio="xMidYMid meet">

<g transform="translate(0.000000,406.000000) scale(0.100000,-0.100000)"
fill="#000000" stroke="none">
<path d="M0 2030 l0 -2030 2030 0 2030 0 0 2030 0 2030 -2030 0 -2030 0 0
-2030z m2073 957 c8 -21 -8 -39 -29 -35 -11 2 -20 13 -22 26 -3 18 1 22 21 22
14 0 27 -6 30 -13z m64 -138 c133 -64 204 -211 169 -348 -17 -67 -53 -130 -89
-158 l-24 -18 37 -50 c81 -108 107 -164 135 -289 l6 -28 -48 7 c-26 3 -58 9
-70 12 -35 8 -28 -8 33 -75 41 -46 75 -71 132 -99 73 -36 81 -38 177 -38 88 0
107 3 158 27 34 16 80 50 113 83 60 62 70 60 24 -4 -33 -45 -112 -100 -175
-122 -62 -21 -199 -16 -265 9 -68 27 -144 83 -187 140 -24 32 -35 40 -39 29
-6 -18 9 -52 38 -84 l20 -22 -23 -38 c-36 -58 -99 -123 -120 -123 -14 0 -1
-18 46 -64 121 -118 157 -252 105 -389 -40 -105 -173 -213 -260 -211 -48 2
-133 46 -184 97 -62 62 -90 127 -94 217 -5 109 20 171 111 267 l70 74 -31 27
c-61 53 -125 172 -93 172 5 0 17 18 27 40 10 22 21 40 24 40 3 0 17 -24 32
-52 32 -67 97 -149 131 -167 24 -13 29 -12 48 5 37 33 100 132 130 206 29 70
29 71 13 132 -21 83 -58 147 -116 204 -45 44 -48 50 -48 100 0 28 2 52 4 52 2
0 19 -6 37 -14 l33 -14 30 62 c58 115 37 246 -50 313 -51 38 -101 37 -150 -3
-57 -46 -79 -96 -79 -179 0 -60 5 -79 31 -127 22 -40 28 -60 21 -67 -6 -6 8
-2 30 9 23 11 45 20 48 20 3 0 5 -22 5 -49 0 -46 -4 -54 -49 -100 -54 -55 -91
-125 -114 -213 -12 -47 -12 -58 -1 -70 11 -11 0 -13 -69 -10 -45 2 -83 5 -84
6 -1 1 6 29 16 62 24 79 70 169 119 230 l39 50 -43 47 c-152 168 -76 430 149
509 60 21 80 18 164 -23z m-607 -74 c-7 -9 -15 -13 -17 -11 -7 7 7 26 19 26 6
0 6 -6 -2 -15z m980 -20 c-7 -9 -15 -13 -17 -11 -7 7 7 26 19 26 6 0 6 -6 -2
-15z m-870 -120 c-7 -9 -15 -13 -17 -11 -7 7 7 26 19 26 6 0 6 -6 -2 -15z
m770 -10 c-7 -9 -15 -13 -17 -11 -7 7 7 26 19 26 6 0 6 -6 -2 -15z m340 0 c-7
-9 -15 -13 -17 -11 -7 7 7 26 19 26 6 0 6 -6 -2 -15z m-1450 1 c0 -3 -4 -8
-10 -11 -5 -3 -10 -1 -10 4 0 6 5 11 10 11 6 0 10 -2 10 -4z m1325 -26 c18 -8
17 -9 -8 -9 -66 -2 -116 -58 -104 -118 5 -26 4 -26 -9 -8 -28 38 -10 95 38
125 36 21 52 23 83 10z m-1170 -14 c-36 -16 -59 -41 -73 -81 l-10 -30 -1 34
c-1 46 40 91 83 91 l31 -1 -30 -13z m1230 -126 c-8 -16 -25 -35 -37 -41 -16
-9 -13 -1 13 30 19 22 35 41 37 41 1 0 -4 -13 -13 -30z m-1527 -102 c-2 -6
-24 -19 -47 -27 -78 -29 -151 -98 -196 -185 -36 -71 -40 -85 -39 -150 2 -91
34 -166 103 -239 45 -47 140 -107 170 -107 6 0 11 -4 11 -10 0 -33 -131 32
-197 98 -134 134 -151 339 -39 485 17 23 54 59 81 79 66 50 162 85 153 56z
m398 -86 c14 -8 5 -9 -42 -5 -153 14 -295 -76 -362 -230 l-22 -49 24 -47 c13
-26 44 -65 69 -88 153 -141 360 -132 520 22 26 25 50 45 52 45 27 0 -69 -98
-133 -136 -46 -27 -141 -54 -192 -54 -106 0 -233 63 -295 148 -53 71 -62 111
-42 175 47 144 188 242 338 234 36 -2 74 -9 85 -15z m1160 -7 c34 -14 49 -33
17 -20 -43 16 -121 22 -173 13 -65 -12 -120 -38 -177 -84 -26 -22 -44 -30 -48
-23 -16 25 90 102 174 126 54 15 157 9 207 -12z m-75 -645 c5 0 21 -11 34 -25
34 -33 34 -93 1 -132 -21 -24 -32 -28 -76 -28 -44 0 -55 4 -76 28 -37 44 -33
101 10 142 23 21 36 44 39 66 l4 34 1 -37 c1 -21 5 -38 8 -38 14 0 34 31 36
57 1 15 3 7 5 -19 2 -27 9 -48 14 -48z m-1220 -29 c-12 -12 -21 -25 -21 -30 0
-5 -3 -16 -6 -24 -11 -29 31 -39 86 -23 28 8 54 16 58 18 4 2 6 18 6 36 -2 41
3 41 22 -3 12 -30 12 -40 1 -67 -18 -44 -38 -59 -86 -65 -36 -5 -44 -2 -76 30
-47 47 -49 95 -3 140 18 19 33 27 35 20 2 -6 -5 -21 -16 -32z m-101 -136 c15
-18 5 -35 -20 -35 -22 0 -34 15 -26 35 7 19 30 19 46 0z m1477 -28 c-5 -16
-37 -21 -50 -8 -18 18 11 43 35 30 10 -6 17 -16 15 -22z m-347 8 c15 -18 5
-35 -20 -35 -22 0 -34 15 -26 35 7 19 30 19 46 0z m-790 -11 c11 -12 11 -18
-2 -30 -18 -18 -48 -8 -48 15 0 33 28 42 50 15z m964 -90 c21 -8 20 -40 -1
-48 -9 -4 -23 0 -31 8 -13 12 -13 18 -2 30 14 18 13 18 34 10z m-1144 -19 c15
-18 5 -35 -20 -35 -22 0 -34 15 -26 35 7 19 30 19 46 0z m1058 -62 c3 -19 -1
-23 -21 -23 -25 0 -42 23 -31 41 11 19 49 5 52 -18z"/>
<path d="M1889 2353 c-13 -16 -12 -17 4 -4 9 7 17 15 17 17 0 8 -8 3 -21 -13z"/>
<path d="M1851 2244 c-12 -15 -21 -31 -21 -37 0 -6 11 4 25 23 14 19 25 35 25
37 0 9 -11 0 -29 -23z"/>
<path d="M1954 1526 c-99 -102 -111 -235 -30 -341 15 -19 45 -44 68 -56 l40
-21 46 29 c93 57 131 203 82 310 -23 52 -104 133 -133 133 -12 0 -43 -22 -73
-54z"/>
</g>
</svg>
